<svg width="306" height="306" viewBox="0 0 306 306" fill="none" xmlns="http://www.w3.org/2000/svg">
<g clip-path="url(#clip0_702_7)">
<rect width="306" height="306" rx="153" fill="white"/>
<path d="M43.1934 75.0298H79.2534V135.683L115.917 86.4966C119.136 82.6743 122.455 79.8076 125.875 77.8965C129.396 75.8848 133.67 74.8789 138.7 74.8789C142.723 74.8789 146.545 75.8848 150.167 77.8965C153.888 79.9082 157.107 82.6743 159.823 86.1948C162.639 89.6147 164.852 93.6382 166.461 98.2651C168.171 102.892 169.026 107.871 169.026 113.202V130.251L200.711 86.4966C203.93 82.7749 207.551 79.9082 211.574 77.8965C215.598 75.8848 220.074 74.8789 225.002 74.8789C229.026 74.8789 232.848 75.8848 236.469 77.8965C240.191 79.9082 243.41 82.6743 246.125 86.1948C248.942 89.6147 251.155 93.6382 252.764 98.2651C254.474 102.892 255.329 107.871 255.329 113.202V207.2H282.186C281.783 210.72 280.777 214.09 279.168 217.309C277.659 220.427 275.698 223.143 273.284 225.456C270.97 227.77 268.305 229.63 265.287 231.039C262.27 232.346 259.101 233 255.782 233H247.634C243.711 233 239.99 231.994 236.469 229.982C233.049 227.971 230.082 225.255 227.567 221.835C225.053 218.314 223.041 214.241 221.532 209.614C220.124 204.987 219.42 200.008 219.42 194.677V103.999L169.026 165.104V233H132.966V103.999L79.2534 170.385V233H43.1934V75.0298Z" fill="#C31271"/>
</g>
<defs>
<clipPath id="clip0_702_7">
<rect width="306" height="306" rx="153" fill="white"/>
</clipPath>
</defs>
</svg>
